<svg id="Layer_1" enable-background="new 0 0 64 64" viewBox="0 0 64 64" xmlns="http://www.w3.org/2000/svg" xmlns:xlink="http://www.w3.org/1999/xlink"><linearGradient id="lg1"><stop offset=".001943109" stop-color="#034a7a"></stop><stop offset="1" stop-color="#002f49"></stop></linearGradient><linearGradient id="SVGID_1_" gradientUnits="userSpaceOnUse" x1="2" x2="62" xlink:href="#lg1" y1="15.5" y2="15.5"></linearGradient><linearGradient id="SVGID_2_" gradientUnits="userSpaceOnUse" x1="2" x2="62" xlink:href="#lg1" y1="31.5" y2="31.5"></linearGradient><linearGradient id="SVGID_3_" gradientUnits="userSpaceOnUse" x1="2" x2="62" xlink:href="#lg1" y1="47.5" y2="47.5"></linearGradient><g><path d="m56.5 35h-49c-1.9 0-3.5-1.6-3.5-3.5 0-1.9 1.6-3.5 3.5-3.5h49c1.9 0 3.5 1.6 3.5 3.5 0 1.9-1.6 3.5-3.5 3.5z" fill="#1c94f9"></path><g><path d="m7.5 21h49c3 0 5.5-2.5 5.5-5.5s-2.5-5.5-5.5-5.5h-49c-3 0-5.5 2.5-5.5 5.5s2.5 5.5 5.5 5.5zm0-7h49c.8 0 1.5.7 1.5 1.5s-.7 1.5-1.5 1.5h-49c-.8 0-1.5-.7-1.5-1.5s.7-1.5 1.5-1.5z" fill="url(#SVGID_1_)"></path><path d="m56.5 26h-49c-3 0-5.5 2.5-5.5 5.5s2.5 5.5 5.5 5.5h49c3 0 5.5-2.5 5.5-5.5s-2.5-5.5-5.5-5.5zm0 7h-49c-.8 0-1.5-.7-1.5-1.5s.7-1.5 1.5-1.5h49c.8 0 1.5.7 1.5 1.5s-.7 1.5-1.5 1.5z" fill="url(#SVGID_2_)"></path><path d="m56.5 42h-49c-3 0-5.5 2.5-5.5 5.5s2.5 5.5 5.5 5.5h39.5c1.1 0 2-.9 2-2s-.9-2-2-2h-39.5c-.8 0-1.5-.7-1.5-1.5s.7-1.5 1.5-1.5h49c.8 0 1.5.7 1.5 1.5s-.7 1.5-1.5 1.5c-1.1 0-2 .9-2 2s.9 2 2 2c3 0 5.5-2.5 5.5-5.5s-2.5-5.5-5.5-5.5z" fill="url(#SVGID_3_)"></path></g></g></svg>